<svg width="64" height="64" viewBox="0 0 64 64" xmlns="http://www.w3.org/2000/svg" role="img" aria-label="SOLE.">
  <rect width="64" height="64" rx="14" fill="#1a1a1a"/>
  <path d="M42.5 22.8c-2.2-2.6-5.7-4.1-9.7-4.1-6.6 0-11.2 3.4-11.2 8.6 0 5 3.8 7 9.9 8.2 4.6 0.9 6.3 1.7 6.3 3.8 0 2.2-2.3 3.6-5.8 3.6-3.7 0-6.6-1.6-8.6-4.2l-4.6 3.6c2.7 3.7 7.2 5.9 12.9 5.9 7.2 0 12-3.6 12-9.2 0-5.3-3.9-7.3-10.4-8.6-4.3-0.9-5.8-1.6-5.8-3.5 0-1.9 2-3.1 5-3.1 3.1 0 5.6 1.2 7.4 3.4l4.2-3.4z" fill="#fafafa"/>
  <circle cx="46.5" cy="44.5" r="3" fill="#fafafa"/>
</svg>
